<?xml version="1.0" encoding="utf-8"?>
<svg version="1.1" id="Layer_1" xmlns="http://www.w3.org/2000/svg" x="0px" y="0px" width="100%" viewBox="0 0 1024 1024" enable-background="new 0 0 1024 1024">
  <path opacity="1.000000" stroke="none" d="M 789.999 314.211 C 773.37 333.744 757.815 353.319 740.68 371.763 C 736.452 376.315 732.391 377.669 726.129 376.319 C 689.712 368.463 653.192 361.022 616.801 353.077 C 610.553 351.714 606.112 352.92 601.59 356.714 C 554.395 396.319 505.037 433.757 460.807 476.333 C 459.738 477.362 458.998 479.109 455.09 478.309 C 468.024 429.365 453.578 392.806 395.396 377.939 C 395.861 377.21 396.327 376.482 396.792 375.754 C 405.346 371.722 413.6 366.974 422.513 363.792 C 447.675 354.808 468.747 339.884 490.165 325.41 C 501.926 317.462 513.852 309.697 527.143 304.121 C 533.338 301.522 536.143 297.465 536.852 291.759 C 538.728 276.679 540.358 261.572 542.244 246.493 C 544.448 228.859 546.84 211.247 549.102 193.618 C 549.573 189.958 552.111 187.634 554.887 185.404 C 568.398 174.555 581.936 163.735 595.41 152.847 C 601.527 147.902 609.372 147.796 616.64 146.679 C 662.88 139.569 709.141 133.118 756.11 130.718 C 817.911 127.559 879.714 126.786 941.558 126.574 C 944.013 126.566 946.467 126.879 948.788 127.034 C 950.202 130.9 947.421 132.814 945.63 134.905 C 927.754 155.765 909.69 176.486 891.941 197.437 C 888.105 201.964 883.832 203.656 877.649 203.63 C 833.402 203.434 789.154 203.561 744.905 203.493 C 737.914 203.481 731.059 204.216 724.125 206.164 C 772.924 211.395 822.038 213.833 870.488 220.177 C 871.947 223.705 869.334 225.387 867.693 227.308 C 848.803 249.4 829.777 271.393 811.021 293.581 C 807.796 297.398 804.203 298.452 799.378 297.737 C 766.041 292.799 732.712 287.813 699.344 283.065 C 690.796 281.848 682.116 281.437 673.215 281.357 C 683.304 283.942 693.35 286.678 703.487 289.084 C 730.805 295.569 758.183 301.841 785.465 308.444 C 787.729 308.992 793.595 308.25 789.999 314.211 Z" style="fill: rgb(255, 255, 255);"/>
  <path opacity="1.000000" stroke="none" d="M 806 812.613 C 816.984 819.623 820.819 829.752 823.173 840.574 C 829.284 868.678 824.142 894.087 803.506 916.589 C 791.179 930.03 776.792 934.67 758.213 931.611 C 714.937 924.483 673.081 912.442 630.896 901.471 C 624.819 899.89 623.328 896.076 623.507 891.759 C 623.83 883.958 619.414 878.581 614.319 873.359 C 605.713 864.533 597.256 855.557 588.183 847.152 C 584.308 843.561 584.084 840.853 587.411 837.328 C 621.15 801.592 613.696 739.599 588.564 705.37 C 568.726 678.348 541.31 664.171 506.958 661.14 C 491.936 659.814 477.648 663.846 465.344 672.699 C 442.754 688.953 429.123 711.141 417.552 734.51 C 408.034 753.73 399.252 773.245 394.856 794.217 C 391.892 808.35 395.165 821.863 397.907 835.516 C 399.772 844.808 401.644 854.098 403.521 863.434 C 355.447 868.338 274.715 790.009 277.535 740.476 C 292.445 748.822 307.151 756.322 323.844 760.777 C 326.118 755.682 325.345 751.171 324.623 746.609 C 320.626 721.343 321.603 719.585 345.842 707.523 C 348.551 706.174 351.108 704.359 353.996 703.551 C 368.844 699.407 374.779 688.851 377.412 676.064 C 378.778 669.419 382.536 665.468 389.132 662.297 C 422.768 646.129 453.238 625.53 483.039 604.049 C 492.139 597.49 494.022 597.872 503.726 603.754 C 536.702 623.735 564.548 648.376 585.789 679.176 C 587.465 681.607 589.795 683.401 592.425 684.99 C 614.671 698.422 636.403 712.645 659.262 725.118 C 672.003 732.069 676.251 741.779 677.771 754.023 C 678.389 758.995 675.797 764.473 680.082 768.893 C 681.93 770.799 696.688 775.341 702.527 776.016 C 703.094 765.29 696.669 755.898 695.302 745.793 C 698.722 743.845 700.695 745.853 702.664 746.95 C 724.216 758.975 745.716 771.08 767.225 783.172 C 769.874 784.663 773.467 786.38 772.609 789.428 C 770.681 796.271 775.339 797.741 780.514 799.76 C 789.265 803.171 798.03 806.666 806 812.613 M 774.527 856.656 C 762.059 852.623 749.339 849.559 736.449 847.243 C 734.244 851.844 734.034 855.464 738.745 857.083 C 750.381 861.079 762.196 864.62 774.36 866.703 C 776.751 863.448 776.515 860.516 774.527 856.656 Z" style="fill: rgb(255, 255, 255);"/>
  <path opacity="1.000000" stroke="none" d="M 559.835 695.503 C 582.037 712.049 592.269 733.742 595.492 758.734 C 599.414 789.169 589.71 815.716 568.41 838.928 C 567.519 839.899 566.82 841.02 565.497 842.784 C 570.703 848.029 575.925 853.282 581.134 858.545 C 586.418 863.883 591.231 869.707 597.062 874.476 C 607.666 883.152 610.152 894.299 610.275 906.46 C 610.303 909.3 610.613 912.153 610.412 914.977 C 608.191 945.991 611.548 976.179 625.669 1004.83 C 626.576 1006.68 626.934 1008.77 627.387 1010.79 C 627.545 1011.49 627.213 1012.28 627.027 1013.57 C 595.259 1013.57 563.512 1013.57 530.832 1013.57 C 534.205 997.671 539.924 983.452 550.795 969.522 C 536.178 972.277 528.58 980.081 523.533 990.244 C 520.636 996.077 518.655 1002.32 516.538 1008.45 C 515.43 1011.66 514.131 1014.14 509.857 1014.13 C 479.343 1014.02 448.827 1013.99 418.311 1013.89 C 417.523 1013.89 416.738 1013.44 415.457 1013.04 C 417.662 1001.1 426.629 992.535 432.837 982.63 C 443.757 965.206 459.565 954.632 481.457 952.728 C 497.454 951.333 507.375 943.886 511.825 929.658 C 513.664 923.782 518.312 918.837 519.447 912.187 C 513.225 908.891 506.186 908.503 499.523 907.251 C 478.973 903.389 458.712 898.63 438.787 892.567 C 432.393 890.62 428.345 887.199 425.958 881.429 C 419.471 865.75 414.152 849.779 410.216 833.382 C 408.774 827.375 410.875 825.235 417.236 825.466 C 433.171 826.042 449.124 826.251 465.043 827.063 C 472.331 827.434 476.825 825.099 478.818 818.169 C 475.985 815.186 471.973 815.684 468.209 815.673 C 450.848 815.619 433.484 815.406 416.131 815.719 C 408.506 815.857 406.853 812.519 408.05 806.61 C 416.516 764.827 433.895 726.633 462.812 693.325 C 475.594 678.603 493.66 675.207 512.818 677.085 C 530.081 678.78 545.742 684.989 559.835 695.503 M 539.132 764.426 C 538.071 757.943 535.644 762.564 534.732 764.209 C 528.752 774.99 522.998 785.881 517.285 796.787 C 515.919 799.393 515.919 801.845 520.27 802.864 C 521.037 802.045 522.216 801.243 522.722 800.172 C 528.172 788.606 533.514 776.997 539.132 764.426 Z" style="fill: rgb(255, 255, 255);"/>
  <path opacity="1.000000" stroke="none" d="M 311.156 715.935 C 310.918 725.057 312.321 733.495 310.608 741.285 C 309.344 741.816 308.994 742.082 308.853 742.007 C 292.634 733.512 275.873 725.81 260.995 715.312 C 256.88 712.408 258.054 707.881 258.735 703.753 C 260.203 694.851 261.923 685.96 261.48 676.894 C 261.386 674.975 262.325 672.674 259.142 671.154 C 247.743 686.631 251.421 706.604 241.44 723.633 C 232.011 718.547 225.298 711.776 218.177 705.424 C 205.071 693.733 201.07 681.149 210.362 665.295 C 216.368 655.049 222.607 645.039 229.771 635.486 C 231.911 632.632 235.158 631.076 238.449 629.57 C 252.746 623.036 266.771 615.944 281.353 610.014 C 296.955 603.67 310.571 595.013 322.911 584.296 C 344.162 565.839 366.995 549.233 392.506 536.005 C 399.266 532.5 400.225 528.951 395.399 523.307 C 388.391 515.116 382.464 506.124 374.823 498.622 C 371.328 500.217 372.424 502.034 373.164 503.643 C 374.253 506.012 375.506 508.322 376.752 510.63 C 385.679 527.166 385.083 528.721 367.859 538.097 C 363.618 540.406 360.94 539.894 357.893 536.418 C 336.422 511.928 314.849 487.516 293.185 463.171 C 289.667 459.219 289.292 455.491 292.022 451.141 C 300.569 437.521 309.006 423.842 317.513 410.199 C 318.067 409.312 318.673 408.303 319.554 407.766 C 350.61 388.757 384.438 375.876 420.424 399.041 C 440.029 411.66 444.193 429.631 443.007 449.287 C 442.263 461.622 442.632 472.669 449.761 483.904 C 459.917 499.915 467.466 517.301 473.765 534.934 C 476.396 542.302 481.02 544.212 488.296 544.986 C 498.496 546.073 508.899 545.906 518.609 548.32 C 519.617 550.104 518.938 551.222 518.053 552.247 C 500.317 572.74 480.709 591.459 456.474 605.493 C 428.276 621.822 399.89 637.878 371.439 653.827 C 365.828 656.972 363.769 660.693 363.226 666.858 C 362.248 677.976 358.926 687.917 346.338 694.106 C 328.644 702.804 329.098 703.575 317.22 688.856 C 316.421 687.866 315.433 687.005 312.841 684.354 C 310.357 695.675 311.168 705.457 311.156 715.935 Z" style="fill: rgb(255, 255, 255);"/>
  <path opacity="1.000000" stroke="none" d="M 133.941 853.962 C 127.945 847.603 128.536 840.011 127.297 833.01 C 126.22 826.929 126.578 820.638 125.652 814.525 C 123.755 802.024 127.673 791.734 136.148 781.685 C 155.587 758.639 175.764 736.238 197.282 714.827 C 201.145 710.984 203.839 710.87 207.386 714.668 C 209.39 716.813 211.998 718.494 213.891 720.705 C 223.299 731.705 235.133 734.963 249.458 730.454 C 255.878 728.434 259.052 729.696 259.967 736.622 C 265.221 776.435 283.016 810.623 314.812 838.339 C 315.344 838.802 315.447 839.682 315.988 840.907 C 302.325 847.262 286.765 849.125 272.716 856.645 C 285.415 871.078 297.134 885.21 312.023 896.632 C 318.202 901.371 319.021 905.234 314.433 911.582 C 303.58 926.605 293.811 942.295 283.044 957.375 C 278.953 963.106 278.615 968.585 280.017 974.9 C 282.802 987.436 285.181 1000.04 287.891 1013.44 C 249.221 1013.44 211.588 1013.44 173.933 1013.44 C 174.701 1003.39 183.885 989.048 199.731 972.93 C 191.8 971.945 183.922 974.341 177.5 979.931 C 168.381 987.871 162.41 997.801 157.174 1008.12 C 155.574 1011.27 154.237 1014.11 149.573 1014.09 C 122.413 1013.99 95.254 1014.05 68.096 1013.99 C 66.822 1013.99 65.548 1013.43 63.637 1012.99 C 67.651 1001.74 75.717 993.522 83.142 984.947 C 84.186 983.74 85.626 982.803 86.558 981.539 C 101.657 961.041 123.091 952.517 149.439 952.3 C 157.729 952.233 166.004 950.237 174.281 949.12 C 180.111 948.333 184.446 945.864 187.716 941.028 C 193.334 932.719 199.273 924.546 205.765 916.805 C 210.557 911.092 209.411 907.735 203.325 903.708 C 181.041 888.968 158.727 874.235 138.039 857.564 C 136.775 856.546 135.573 855.463 133.941 853.962 Z" style="fill: rgb(255, 255, 255);"/>
  <path opacity="1.000000" stroke="none" d="M 890.333 914.136 C 904.773 916.56 918.924 915.807 933.28 919.516 C 930.966 927.597 927.516 934.776 922.81 941.504 C 920.573 944.699 917.133 944.395 913.794 944.306 C 895.607 943.832 877.41 943.541 859.241 942.693 C 851.713 942.341 847.974 945.473 845.216 953.3 C 867.024 953.3 887.971 953.3 908.95 953.3 C 908.758 958.265 905.867 959.789 903.784 961.755 C 886.52 978.054 865.66 985.641 840.802 986.376 C 817.679 987.058 794.624 989.921 771.561 992.036 C 767.192 992.437 763.149 991.502 759.17 990.536 C 747.549 987.718 736.075 984.398 724.494 981.438 C 717.861 979.743 715.548 976.75 719.588 970.843 C 724.662 963.421 729.688 955.959 734.363 948.321 C 737.2 943.681 741.133 942.684 746.344 943.644 C 751.546 944.606 756.786 945.406 762.021 946.22 C 782.38 949.39 799.038 943.221 812.05 928.76 C 838.672 899.172 843.712 865.307 833.862 829.041 C 829.204 811.893 816.183 800.916 799.256 793.225 C 787.923 788.076 788.05 787.615 793.068 776.838 C 797.725 766.836 800.188 756.328 801.712 745.782 C 804.904 744.27 806.838 746.23 808.874 747.342 C 840.902 764.848 873.28 781.843 904.697 800.236 C 916.379 807.075 920.796 820.037 926.239 831.926 C 905.969 826.915 887.721 817.451 867.43 812.103 C 865.282 818.907 869.892 820.557 874.24 822.247 C 890.231 828.461 906.066 835.071 922.328 840.605 C 930.619 843.426 935.482 847.726 936.902 855.662 C 937.973 861.653 940.838 867.436 939.227 874.974 C 918.548 870.951 899.46 862.938 879.341 858.427 C 875.652 865.916 879.287 868.615 886.172 870.284 C 901.574 874.018 916.792 878.405 932.221 882.033 C 938.563 883.524 941.373 886.274 940.134 892.301 C 939.826 893.805 940.092 895.401 939.938 896.94 C 938.501 911.229 936.666 912.298 921.42 909.574 C 905.299 906.692 889.087 904.248 873.232 901.666 C 870.704 904.676 870.329 907.472 869.683 910.561 C 875.564 915.351 882.931 913.087 890.333 914.136 Z" style="fill: rgb(255, 255, 255);"/>
  <path opacity="1.000000" stroke="none" d="M 92.978 702.94 C 90.542 701.583 88.648 700.48 86.716 699.438 C 71.238 691.104 71.731 694.168 75.222 675.046 C 77.068 664.92 76.571 664.114 64.205 662.589 C 63.174 679.861 66.176 696.808 68.278 715.019 C 58.082 713.735 48.691 712.004 40.889 706.351 C 29.231 697.908 21.281 686.62 14.194 674.819 C 11.439 670.23 11.832 665.219 13.628 660.518 C 17.804 649.581 22.297 638.743 26.764 627.902 C 28.961 622.568 33.475 619.124 38.593 616.255 C 70.096 598.596 104.157 586.14 138.626 574.52 C 141.731 573.474 144.695 573.373 146.988 576.076 C 163.556 595.591 181.365 614.094 201.649 632.061 C 192.295 638.754 182.582 643.212 172.005 644.95 C 157.738 647.299 143.226 648.501 128.771 649.698 C 123.451 650.138 120.776 651.863 121.487 656.764 C 122.804 665.846 119.273 673.12 113.245 680.18 C 108.095 686.21 103.54 692.84 101.19 700.441 C 99.963 704.411 97.25 705.089 92.978 702.94 Z" style="fill: rgb(255, 255, 255);"/>
  <path opacity="1.000000" stroke="none" d="M 1007.39 910.152 C 1005.45 932.998 994.384 951.069 977.802 966.606 C 975.45 968.811 972.511 970.42 968.916 970.561 C 950.479 971.286 932.044 972.037 913.608 972.729 C 913.209 972.744 912.782 972.137 910.906 970.7 C 948.974 933.699 961.756 890.33 945.845 840.194 C 963.26 851.249 982.118 858.689 998.563 869.669 C 1004.96 873.943 1005.56 881.948 1006.73 888.682 C 1007.9 895.471 1008.71 902.507 1007.39 910.152 Z" style="fill: rgb(255, 255, 255);"/>
  <path opacity="1.000000" stroke="none" d="M 415.437 40.191 C 421.579 45.037 425.835 55.613 433.864 54.731 C 477.416 49.943 518.839 34.642 561.204 24.166 C 570.992 21.745 580.264 17.323 590.304 16.044 C 591.986 15.83 590.337 19.53 589.109 20.612 C 567.242 39.872 544.942 58.762 521.635 76.527 C 494.784 96.993 450.441 88.434 433.272 118.771 C 429.76 124.975 413.205 127.165 416.841 133.309 C 434.25 162.725 467.569 182.934 482.794 213.363 C 486.367 220.505 463.996 209.23 457.21 213.997 C 452.69 217.173 460.441 224.337 459.765 229.54 C 454.912 266.901 450.032 304.416 440.705 341.047 C 439.648 345.198 433.685 346.8 429.465 348.542 C 392.37 363.857 348.061 375.643 312.968 396.237 C 306.996 399.741 302.039 404.901 298.447 410.526 C 291.573 421.29 268.17 455.541 278.022 468.743 C 295.794 492.559 318.068 513.234 338.009 535.54 C 341.169 539.076 346.071 541.835 347.324 546.267 C 347.953 548.489 344.59 550.251 342.539 551.551 C 315.187 568.904 287.61 585.989 259.36 602.074 C 249.105 607.915 217.745 628.572 208.248 619.803 C 167.313 582.007 140.9 560.13 130.667 510.43 C 130.115 507.749 134.025 505.041 136.955 504.649 C 148.876 503.055 161.093 505.757 173.09 504.762 C 196.332 502.835 207.893 472.853 213.308 451.923 C 215.876 441.996 197.25 465.981 189.561 473.323 C 179.998 482.454 167.543 489.523 154.4 493.298 C 144.255 496.212 126.817 494.317 127.014 487.917 C 128.873 427.547 133.457 419.015 181.165 380.829 C 193.784 370.728 214.826 374.575 228.579 372.786 C 231.114 372.456 237.848 370.059 235.366 369.477 C 223.892 366.785 210.872 370.493 200.037 366.091 C 196.65 364.714 203.952 360.252 206.444 357.729 C 214.177 349.902 221.386 341.394 230.633 335.118 C 237.103 330.727 245.22 328.877 252.752 326.302 C 254.553 325.687 258.636 327.37 258.461 325.608 C 258.091 321.879 249.833 319.528 251.754 316.228 C 281.834 264.572 311.894 291.568 357.356 268.797 C 374.085 260.418 391.04 251.985 405.774 240.868 C 410.075 237.623 414.694 231.766 412.83 226.938 C 407.123 212.161 395.152 200.09 385.132 187.414 C 384.488 186.601 382.002 186.782 381.879 187.783 C 380.393 199.818 396.021 208.672 399.194 220.425 C 402.765 233.644 374.043 247.101 360.765 252.786 C 324.055 268.504 280.711 264.048 241.043 271.463 C 218.155 275.74 211.455 295.015 187.183 283.867 C 162.991 272.755 138.693 246.981 178.319 238.719 C 183.49 237.64 188.766 241.599 194.027 241 C 204.715 239.784 212.698 229.669 223.405 228.605 C 240.671 226.89 258.155 229.346 275.505 228.653 C 279.101 228.509 287.825 228.94 285.944 226.11 C 282.305 220.634 274.598 217.08 267.639 216.817 C 258.572 216.473 180.915 210.653 156.963 232.378 C 149.392 239.246 148.789 261.757 139.525 256.966 C 87.738 230.183 118.66 185.995 135.457 157.039 C 138.935 151.044 150.402 155.805 157.161 153.086 C 171.483 147.325 184.749 139.481 197.867 131.655 C 204.73 127.561 209.549 120.671 216.93 117.43 C 234.353 109.78 253.689 106.413 271.405 99.361 C 291.83 91.232 311.938 82.279 331.164 71.96 C 357.541 57.803 382.104 40.936 408.003 26.045 C 410.06 24.862 413.81 21.815 414.867 23.827 C 417.449 28.738 415.247 34.737 415.437 40.191 M 298.724 138.756 C 280.614 144.587 259.651 145.527 244.391 156.247 C 239.592 159.619 251.777 166.332 257.65 167.611 C 266.959 169.637 277.929 169.717 286.241 165.354 C 296.87 159.776 305.57 150.262 310.426 139.914 C 311.985 136.594 302.625 139.142 298.724 138.756 M 279.946 322.116 C 281.61 317.071 265.366 317.851 263.702 322.896 C 262.177 327.518 278.368 326.899 279.946 322.116 Z" style="fill: rgb(255, 255, 255);"/>
</svg>